<svg xmlns="http://www.w3.org/2000/svg" version="1.1" xmlns:xlink="http://www.w3.org/1999/xlink" xmlns:svgjs="http://svgjs.dev/svgjs" width="1440" height="560" preserveAspectRatio="none" viewBox="0 0 1440 560"><g mask="url(&quot;#SvgjsMask1005&quot;)" fill="none"><rect width="1440" height="560" x="0" y="0" fill="rgba(14, 26, 34, 1)"></rect><path d="M0,461.863C87.458,449.586,171.109,429.245,248.412,386.537C330.133,341.389,416.244,292.68,457.672,209.012C499.573,124.39,485.598,25.57,473.518,-68.082C461.282,-162.941,432.416,-251.298,387.409,-335.692C331.613,-440.318,295.048,-583.978,181.031,-616.534C66.875,-649.13,-39.007,-544.348,-143.042,-487.156C-226.562,-441.242,-294.222,-380.088,-365.061,-316.327C-446.689,-242.855,-575.391,-193.677,-590.028,-84.833C-604.681,24.136,-486.019,101.314,-434.268,198.324C-386.545,287.783,-384.357,410.593,-297.677,463.195C-211.095,515.738,-100.295,475.942,0,461.863" fill="#0b151b"></path><path d="M1440 1125.525C1547.878 1117.841 1567.476 956.736 1650.179 887.0450000000001 1717.576 830.252 1821.915 828.94 1875.239 758.767 1933.7440000000001 681.776 1974.683 580.626 1954.962 485.96 1935.444 392.267 1838.92 340.881 1773.6109999999999 270.924 1711.095 203.95800000000003 1661.696 125.007 1579.754 84.043 1487.756 38.05200000000002 1375.971-18.524999999999977 1283.122 25.72199999999998 1188.522 70.80399999999997 1190.991 207.18400000000003 1135.205 295.894 1090.356 367.211 1019.773 416.986 988.0029999999999 495.01300000000003 949.3489999999999 589.947 885.947 700.506 933.486 791.317 981.4580000000001 882.954 1123.3220000000001 861.457 1209.656 918.422 1297.62 976.463 1334.879 1133.012 1440 1125.525" fill="#111f29"></path></g><defs><mask id="SvgjsMask1005"><rect width="1440" height="560" fill="#ffffff"></rect></mask></defs></svg>